<svg xmlns="http://www.w3.org/2000/svg" viewBox="0 0 800 500" role="img" aria-label="Remate técnico a portería"><rect width="800" height="500" fill="#f3fbf5"/><rect x="420" y="95" width="260" height="185" fill="#fff" stroke="#1a4d2e" stroke-width="12"/><path d="M420 155 h260 M420 218 h260 M485 95 v185 M550 95 v185 M615 95 v185" stroke="#cfe9d2" stroke-width="5"/><circle cx="640" cy="130" r="22" fill="#e67e22" opacity=".9"/><circle cx="640" cy="245" r="22" fill="#e67e22" opacity=".9"/><path d="M230 335 C330 250 445 215 628 132" fill="none" stroke="#2d7a46" stroke-width="12" stroke-linecap="round" marker-end="url(#arr)"/><defs><marker id="arr" markerWidth="12" markerHeight="12" refX="10" refY="6" orient="auto"><path d="M0,0 L12,6 L0,12 z" fill="#2d7a46"/></marker></defs><circle cx="190" cy="170" r="34" fill="#1a4d2e"/><path d="M190 210 L158 300 M198 212 L248 310" stroke="#1f2937" stroke-width="22" stroke-linecap="round"/><path d="M177 232 L122 262 M205 232 L270 215" stroke="#2d7a46" stroke-width="17" stroke-linecap="round"/><circle cx="235" cy="335" r="27" fill="#fff" stroke="#111827" stroke-width="8"/></svg>